<?xml version="1.0" encoding="utf-8"?>
<!-- Generator: Adobe Illustrator 22.0.1, SVG Export Plug-In . SVG Version: 6.00 Build 0)  -->
<svg version="1.1" id="Layer_1" xmlns="http://www.w3.org/2000/svg" xmlns:xlink="http://www.w3.org/1999/xlink" x="0px" y="0px"
	 viewBox="0 0 106 18.7" style="enable-background:new 0 0 106 18.7;" xml:space="preserve">
<g>
	<path d="M24.7,3.5l0.1,6.9c0,0.1,0,0.2-0.1,0.3c-0.1,0.2-0.4,0.4-0.7,0.4c-0.3,0-0.5-0.1-0.6-0.2c-0.1-0.1-0.2-0.3-0.2-0.5V2.9
		c0-0.4,0.1-0.8,0.4-1c0.3-0.2,0.6-0.3,1-0.3c0.7,0,1.2,0.4,1.5,1.1L28,8.7l2.1-6.1c0.2-0.7,0.7-1.1,1.5-1.1c0.5,0,0.8,0.1,1.1,0.4
		C32.9,2.3,33,2.6,33,2.9v7.5c0,0.2-0.1,0.3-0.2,0.4c-0.2,0.2-0.4,0.2-0.6,0.2c-0.3,0-0.5-0.1-0.7-0.3c-0.1-0.1-0.2-0.3-0.2-0.4
		l0.1-6.9L29.1,10c-0.1,0.2-0.1,0.3-0.2,0.5c-0.2,0.3-0.5,0.4-0.8,0.4c-0.5,0-0.9-0.3-1.1-0.9L24.7,3.5z"/>
	<path d="M36.3,8.1c0,0.5,0.2,0.9,0.5,1.2c0.4,0.3,0.8,0.5,1.4,0.5c0.6,0,1.2-0.2,1.6-0.7C39.9,9,40,8.9,40.2,8.9
		c0.2,0,0.3,0.1,0.5,0.2c0.1,0.1,0.2,0.3,0.2,0.5c0,0.2-0.1,0.4-0.3,0.7c-0.6,0.6-1.4,0.8-2.4,0.8c-0.9,0-1.7-0.3-2.3-0.8
		c-0.8-0.7-1.2-1.6-1.2-2.7c0-0.9,0.2-1.6,0.7-2.2C36,4.6,36.8,4.2,38,4.2c0.9,0,1.7,0.3,2.3,1c0.5,0.6,0.8,1.2,0.8,2
		c0,0.3-0.1,0.5-0.2,0.7c-0.1,0.1-0.3,0.2-0.6,0.2H36.3z M36.3,6.8h2.9c0.1,0,0.2-0.1,0.2-0.2c0-0.2-0.1-0.4-0.3-0.7
		c-0.3-0.4-0.7-0.5-1.2-0.5c-0.3,0-0.6,0.1-0.9,0.2C36.7,6,36.4,6.3,36.3,6.8z"/>
	<path d="M44.1,5.3c0.4-0.7,1-1.1,1.8-1.1c0.4,0,0.8,0.1,1.1,0.3c0.3,0.2,0.4,0.4,0.6,0.8c0.5-0.7,1.1-1.1,2-1.1
		c0.8,0,1.3,0.3,1.7,1c0.2,0.4,0.3,0.9,0.3,1.5v3.6c0,0.2-0.1,0.3-0.2,0.4c-0.2,0.2-0.4,0.2-0.6,0.2c-0.4,0-0.6-0.1-0.7-0.4
		c0-0.1-0.1-0.2-0.1-0.3V6.9c0-0.3,0-0.5-0.1-0.8c-0.2-0.4-0.4-0.5-0.7-0.5c-0.3,0-0.6,0.2-0.8,0.5c-0.3,0.3-0.4,0.7-0.4,1.1v3.3
		c0,0.2-0.1,0.3-0.2,0.4c-0.2,0.2-0.4,0.2-0.6,0.2c-0.3,0-0.6-0.1-0.7-0.4c-0.1-0.1-0.1-0.2-0.1-0.3V7c0-0.3-0.1-0.6-0.2-0.9
		c-0.1-0.3-0.4-0.5-0.7-0.5c-0.3,0-0.6,0.2-0.9,0.5c-0.3,0.3-0.4,0.7-0.4,1.1v3.2c0,0.2,0,0.3-0.1,0.4c-0.2,0.2-0.4,0.3-0.6,0.3
		c-0.3,0-0.6-0.1-0.7-0.4c0-0.1-0.1-0.2-0.1-0.3V4.9c0-0.2,0.1-0.3,0.2-0.4c0.1-0.1,0.3-0.2,0.5-0.2c0.4,0,0.7,0.2,0.7,0.7L44.1,5.3
		z"/>
	<path d="M54.8,8.1c0,0.5,0.2,0.9,0.5,1.2c0.4,0.3,0.8,0.5,1.4,0.5c0.6,0,1.2-0.2,1.6-0.7c0.1-0.1,0.3-0.2,0.4-0.2
		c0.2,0,0.3,0.1,0.5,0.2c0.1,0.1,0.2,0.3,0.2,0.5c0,0.2-0.1,0.4-0.3,0.7c-0.6,0.6-1.4,0.8-2.4,0.8c-0.9,0-1.7-0.3-2.3-0.8
		c-0.8-0.7-1.2-1.6-1.2-2.7c0-0.9,0.2-1.6,0.7-2.2c0.6-0.9,1.5-1.3,2.6-1.3c0.9,0,1.7,0.3,2.3,1c0.5,0.6,0.8,1.2,0.8,2
		c0,0.3-0.1,0.5-0.2,0.7c-0.1,0.1-0.3,0.2-0.6,0.2H54.8z M54.8,6.8h2.9c0.1,0,0.2-0.1,0.2-0.2c0-0.2-0.1-0.4-0.3-0.7
		c-0.3-0.4-0.7-0.5-1.2-0.5c-0.3,0-0.6,0.1-0.9,0.2C55.2,6,54.9,6.3,54.8,6.8z"/>
	<path d="M66.8,3.5l0.1,6.9c0,0.1,0,0.2-0.1,0.3c-0.1,0.2-0.4,0.4-0.7,0.4c-0.3,0-0.5-0.1-0.6-0.2c-0.1-0.1-0.2-0.3-0.2-0.5V2.9
		c0-0.4,0.1-0.8,0.4-1c0.3-0.2,0.6-0.3,1-0.3c0.7,0,1.2,0.4,1.5,1.1l2.1,6.1l2.1-6.1c0.2-0.7,0.7-1.1,1.5-1.1c0.5,0,0.8,0.1,1.1,0.4
		c0.2,0.2,0.3,0.5,0.3,0.9v7.5c0,0.2-0.1,0.3-0.2,0.4c-0.2,0.2-0.4,0.2-0.6,0.2c-0.3,0-0.5-0.1-0.7-0.3c-0.1-0.1-0.2-0.3-0.2-0.4
		l0.1-6.9L71.3,10c-0.1,0.2-0.1,0.3-0.2,0.5c-0.2,0.3-0.5,0.4-0.8,0.4c-0.5,0-0.9-0.3-1.1-0.9L66.8,3.5z"/>
	<path d="M82,5.1l0-0.4c0-0.3,0.2-0.5,0.7-0.5c0.3,0,0.6,0.1,0.7,0.4c0,0.1,0.1,0.2,0.1,0.3v5.5c0,0.1,0,0.3-0.1,0.4
		c-0.1,0.2-0.3,0.3-0.6,0.3c-0.4,0-0.6-0.2-0.7-0.6L81.9,10c-0.4,0.7-1.1,1.1-2.1,1.1c-1.1,0-1.9-0.4-2.4-1.3
		c-0.4-0.6-0.6-1.3-0.6-2.2c0-0.8,0.2-1.5,0.6-2.1c0.3-0.5,0.8-0.9,1.3-1.1c0.4-0.2,0.8-0.2,1.2-0.2C80.8,4.2,81.5,4.5,82,5.1z
		 M81.8,7.8V7.3c0-0.5-0.2-0.9-0.5-1.2c-0.3-0.3-0.7-0.5-1.2-0.5c-0.5,0-0.9,0.2-1.3,0.6c-0.3,0.4-0.4,0.9-0.4,1.5
		c0,0.5,0.1,0.9,0.3,1.3c0.3,0.5,0.8,0.8,1.4,0.8c0.4,0,0.7-0.1,1-0.4C81.6,8.9,81.8,8.4,81.8,7.8z"/>
	<path d="M87.1,8.7v1.7c0,0.2-0.1,0.4-0.2,0.5c-0.2,0.1-0.4,0.2-0.6,0.2c-0.3,0-0.6-0.1-0.7-0.4c0-0.1-0.1-0.2-0.1-0.3V2.2
		c0-0.2,0.1-0.3,0.2-0.4c0.2-0.2,0.4-0.3,0.6-0.3c0.3,0,0.6,0.1,0.7,0.3c0.1,0.1,0.1,0.2,0.1,0.3v4.6l2.7-2.3
		c0.2-0.2,0.4-0.2,0.6-0.2c0.2,0,0.4,0.1,0.5,0.2c0.2,0.2,0.3,0.4,0.3,0.6s-0.1,0.4-0.3,0.5l-1.9,1.6l2.3,2.5
		c0.2,0.2,0.2,0.4,0.2,0.6c0,0.3-0.1,0.5-0.3,0.6c-0.2,0.1-0.4,0.2-0.6,0.2c-0.2,0-0.4-0.1-0.6-0.3l-2.2-2.7L87.1,8.7z"/>
	<path d="M94,8.1c0,0.5,0.2,0.9,0.5,1.2c0.4,0.3,0.8,0.5,1.4,0.5c0.6,0,1.2-0.2,1.6-0.7c0.1-0.1,0.3-0.2,0.4-0.2
		c0.2,0,0.3,0.1,0.5,0.2c0.1,0.1,0.2,0.3,0.2,0.5c0,0.2-0.1,0.4-0.3,0.7c-0.6,0.6-1.4,0.8-2.4,0.8c-0.9,0-1.7-0.3-2.3-0.8
		c-0.8-0.7-1.2-1.6-1.2-2.7c0-0.9,0.2-1.6,0.7-2.2c0.6-0.9,1.5-1.3,2.6-1.3c0.9,0,1.7,0.3,2.3,1c0.5,0.6,0.8,1.2,0.8,2
		c0,0.3-0.1,0.5-0.2,0.7c-0.1,0.1-0.3,0.2-0.6,0.2H94z M94,6.8h2.9c0.1,0,0.2-0.1,0.2-0.2c0-0.2-0.1-0.4-0.3-0.7
		c-0.3-0.4-0.7-0.5-1.2-0.5c-0.3,0-0.6,0.1-0.9,0.2C94.4,6,94.1,6.3,94,6.8z"/>
	<path d="M102,7.4v3c0,0.2-0.1,0.3-0.2,0.4c-0.2,0.2-0.4,0.2-0.6,0.2c-0.3,0-0.5-0.1-0.7-0.3c-0.1-0.1-0.1-0.2-0.1-0.4V4.9
		c0-0.2,0.1-0.3,0.2-0.4c0.1-0.2,0.3-0.2,0.6-0.2c0.3,0,0.5,0.1,0.7,0.4c0,0.1,0.1,0.2,0.1,0.3v0.6c0.2-0.4,0.4-0.6,0.6-0.8
		c0.4-0.4,0.9-0.5,1.4-0.5c0.4,0,0.8,0.1,1.1,0.4c0.2,0.2,0.3,0.4,0.3,0.7c0,0.2-0.1,0.3-0.2,0.5c-0.2,0.2-0.4,0.3-0.6,0.3
		c-0.2,0-0.3,0-0.4-0.1c-0.2-0.1-0.3-0.2-0.5-0.2C102.9,5.7,102.4,6.3,102,7.4z"/>
</g>
<path d="M0.9,0.3v18h18v-18H0.9z M12.1,7.3c-0.7,1.4-1.6,2.7-2.8,4l2.3,2c0.2,0.1,0.3,0.3,0.3,0.5c0,0.1-0.1,0.3-0.2,0.4l-0.4,0.4
	c-0.1,0.1-0.3,0.2-0.4,0.2c-0.1,0-0.3-0.1-0.4-0.2l-2.3-2C7.4,13.3,6.7,14,6,14.5c-0.7,0.6-1.4,1-1.9,1.3C3.9,16,3.7,16,3.6,16
	c-0.1,0-0.3-0.1-0.4-0.2l-0.4-0.5c-0.1-0.2-0.2-0.3-0.2-0.5c0-0.2,0.1-0.3,0.2-0.4C3.7,14,4.4,13.4,5,13c0.6-0.5,1.2-1,1.7-1.5
	c-0.1-0.1-0.9-0.8-2.4-2.1L3.8,9C3.7,8.8,3.6,8.7,3.6,8.5c0-0.2,0.1-0.3,0.2-0.4l0.4-0.5c0.1-0.2,0.3-0.2,0.5-0.2
	c0.2,0,0.3,0.1,0.4,0.2C5.5,8,6.4,8.9,8,10.2C9,9,9.8,7.9,10.3,6.6c0.1-0.3,0.3-0.4,0.5-0.4c0.1,0,0.2,0,0.3,0.1l0.7,0.2
	C12,6.6,12.2,6.8,12.2,7C12.2,7.1,12.2,7.2,12.1,7.3z M17,8.8c-0.1,0.1-0.2,0.1-0.3,0.1h-3.1c-0.5,0-0.8-0.2-0.8-0.7
	c0-0.3,0.2-0.6,0.5-1c0.3-0.3,0.7-0.6,1.4-1.1c0.6-0.4,0.9-0.7,0.9-1c0-0.1-0.1-0.3-0.2-0.4c-0.1-0.1-0.3-0.2-0.5-0.2
	c-0.3,0-0.6,0.1-0.9,0.4c-0.1,0.2-0.3,0.3-0.5,0.3c-0.1,0-0.3,0-0.4-0.1C13,5,13,4.9,13,4.7c0-0.2,0.1-0.4,0.3-0.6
	c0.4-0.4,1-0.6,1.7-0.6c0.6,0,1,0.1,1.4,0.4C16.8,4.2,17,4.6,17,5.1c0,0.4-0.2,0.7-0.5,1.1c-0.2,0.2-0.5,0.4-0.9,0.7
	c-0.5,0.3-0.9,0.6-1.2,0.9h2.3c0.1,0,0.2,0,0.3,0.1c0.1,0.1,0.2,0.3,0.2,0.5C17.2,8.5,17.1,8.7,17,8.8z"/>
<g>
	<path d="M28.3,16.3c0.1,0,0.3,0,0.5,0.1c0.7,0.2,1.2,0.4,1.6,0.6c0.2,0.1,0.2,0.2,0.2,0.4c0,0.1,0,0.2-0.1,0.2
		c-0.1,0.1-0.2,0.1-0.3,0.1c-0.1,0-0.2,0-0.3-0.1c-0.6-0.3-1.2-0.6-1.7-0.8c-0.2-0.1-0.2-0.1-0.2-0.3C28.1,16.4,28.1,16.3,28.3,16.3
		z M28.6,13.6c0.1,0,0.3,0,0.5,0.1c0.5,0.1,0.9,0.2,1.2,0.4c0.2,0.1,0.2,0.2,0.2,0.4c0,0.1,0,0.1-0.1,0.2c-0.1,0.1-0.2,0.1-0.3,0.1
		c-0.1,0-0.2,0-0.3-0.1c-0.4-0.2-0.9-0.4-1.3-0.6c-0.2,0-0.2-0.1-0.2-0.3c0-0.1,0-0.1,0.1-0.2C28.4,13.7,28.5,13.6,28.6,13.6z
		 M28.6,15c0.1,0,0.2,0,0.4,0.1c0.4,0.1,0.8,0.2,1,0.4c0.2,0.1,0.3,0.2,0.3,0.4c0,0.1,0,0.1-0.1,0.2c-0.1,0.1-0.2,0.1-0.3,0.1
		c-0.1,0-0.2,0-0.3-0.1c-0.4-0.2-0.8-0.4-1.1-0.5c-0.1,0-0.2-0.1-0.2-0.2C28.3,15,28.4,15,28.6,15z"/>
	<path d="M42.2,15.1c0.1,0,0.2,0,0.3,0.1c0.1,0.1,0.1,0.1,0.1,0.2c0,0.2-0.1,0.3-0.2,0.3c0,0-0.6,0-1.8,0.1c-0.5,0-1.1,0-1.7,0.1
		c0,0,0,0-0.1,0c-0.1,0-0.2,0-0.2-0.1c-0.1-0.1-0.1-0.1-0.1-0.2c0-0.1,0.1-0.2,0.2-0.3c0.1,0,0.2,0,0.4,0c0.2,0,0.6,0,1.3-0.1
		c0.3,0,0.7,0,1.2-0.1c0.2,0,0.3,0,0.4,0C42.1,15.2,42.2,15.1,42.2,15.1z"/>
	<path d="M53.1,17c-0.7,0.2-1.4,0.3-2.3,0.4c-0.3,0.1-0.5,0.1-0.5,0.1c-0.1,0-0.2,0-0.3-0.1c-0.1-0.1-0.1-0.2-0.1-0.3
		c0-0.1,0-0.2,0.1-0.3c0,0,0.1-0.1,0.1-0.2c0.3-0.5,0.7-1.1,1-1.8c0.2-0.3,0.3-0.6,0.4-0.8c0.1-0.2,0.2-0.2,0.3-0.2
		c0.1,0,0.1,0,0.2,0.1c0.1,0.1,0.2,0.2,0.2,0.3c0,0.1,0,0.1,0,0.2c-0.1,0.3-0.4,0.7-0.7,1.2c-0.3,0.4-0.5,0.8-0.7,1.1
		c0,0,0,0.1,0,0.1c0,0,0,0,0.1,0c0,0,0.1,0,0.2,0c0.9-0.1,1.5-0.2,1.9-0.3c-0.2-0.3-0.3-0.5-0.4-0.6c-0.1-0.1-0.1-0.1-0.1-0.2
		c0-0.1,0-0.1,0.1-0.2c0,0,0.1-0.1,0.2-0.1c0.1,0,0.2,0,0.3,0.1c0.2,0.2,0.4,0.4,0.7,0.8c0.2,0.2,0.3,0.4,0.4,0.6
		C54,17,54,17.1,54,17.2c0,0.1,0,0.2-0.1,0.3c-0.1,0.1-0.2,0.1-0.3,0.1c-0.1,0-0.2-0.1-0.3-0.2C53.3,17.2,53.2,17.1,53.1,17z"/>
	<path d="M63.2,15.2c0.2-0.4,0.4-0.9,0.6-1.4c0.1-0.2,0.2-0.3,0.3-0.3c0.1,0,0.1,0,0.2,0c0.1,0.1,0.2,0.2,0.2,0.3
		c0,0.1,0,0.1-0.1,0.2c-0.2,0.5-0.4,1-0.7,1.4c0.2,0.2,0.4,0.3,0.6,0.5c0.1,0.1,0.1,0.2,0.1,0.3c0,0.1,0,0.2-0.1,0.3
		c-0.1,0-0.1,0.1-0.2,0.1c-0.1,0-0.2,0-0.3-0.1c-0.1-0.1-0.3-0.3-0.5-0.4c-0.5,0.6-1,1-1.5,1.4c-0.2,0.1-0.4,0.2-0.5,0.2
		c-0.1,0-0.1,0-0.2-0.1c0-0.1-0.1-0.1-0.1-0.2c0-0.1,0-0.1,0.1-0.2c0,0,0.1-0.1,0.2-0.1c0.5-0.3,1-0.8,1.5-1.4
		c-0.2-0.2-0.5-0.3-0.7-0.4C62.1,15.2,62,15.1,62,15c0,0,0-0.1,0-0.1c0-0.1,0.1-0.1,0.2-0.1C62.4,14.8,62.7,14.9,63.2,15.2z"/>
	<path d="M76.1,15.1c0.1,0,0.2,0,0.3,0.1c0.1,0.1,0.1,0.1,0.1,0.2c0,0.2-0.1,0.3-0.2,0.3c0,0-0.6,0-1.8,0.1c-0.5,0-1.1,0-1.7,0.1
		c0,0,0,0-0.1,0c-0.1,0-0.2,0-0.2-0.1c-0.1-0.1-0.1-0.1-0.1-0.2c0-0.1,0.1-0.2,0.2-0.3c0.1,0,0.2,0,0.4,0c0.2,0,0.6,0,1.3-0.1
		c0.3,0,0.7,0,1.2-0.1c0.2,0,0.3,0,0.4,0C76,15.2,76.1,15.1,76.1,15.1z"/>
	<path d="M85.3,14.6c0.1-0.3,0.1-0.6,0.2-0.8c0-0.2,0.1-0.3,0.3-0.3c0.2,0,0.3,0.1,0.3,0.3c0,0.1,0,0.4-0.1,0.8c0.2,0,0.5,0,0.8-0.1
		c0,0,0.1,0,0.1,0c0.1,0,0.3,0,0.4,0.1c0.1,0.1,0.2,0.2,0.2,0.4c0,0.1,0,0.2-0.1,0.6c-0.1,0.9-0.3,1.5-0.5,2
		c-0.1,0.3-0.3,0.4-0.5,0.4c-0.1,0-0.2,0-0.4-0.1c-0.4-0.3-0.6-0.5-0.6-0.6c0,0,0-0.1,0-0.1c0,0,0.1-0.1,0.1-0.1
		c0.1,0,0.1,0,0.2,0.1c0.2,0.1,0.4,0.2,0.4,0.2c0.1,0,0.1,0,0.1-0.1c0.1-0.2,0.2-0.6,0.3-1.1c0.1-0.4,0.1-0.7,0.1-0.8
		c0-0.1,0-0.1-0.1-0.1c-0.1,0-0.4,0-0.9,0.1c-0.3,1-0.9,1.8-1.6,2.4c-0.2,0.1-0.3,0.2-0.4,0.2c-0.1,0-0.1,0-0.2-0.1
		c-0.1-0.1-0.1-0.1-0.1-0.2c0-0.1,0-0.1,0.1-0.2c0,0,0.1-0.1,0.2-0.2c0.4-0.4,0.8-0.9,1.1-1.5c0-0.1,0.1-0.2,0.1-0.4
		c-0.6,0.1-0.9,0.1-1,0.1c-0.2,0-0.3-0.1-0.3-0.3c0-0.2,0.1-0.3,0.4-0.3C84.5,14.6,84.8,14.6,85.3,14.6z"/>
	<path d="M98.7,15.1c0.1,0,0.2,0,0.3,0.1c0.1,0.1,0.1,0.1,0.1,0.2c0,0.2-0.1,0.3-0.2,0.3c0,0-0.6,0-1.8,0.1c-0.5,0-1.1,0-1.7,0.1
		c0,0,0,0-0.1,0c-0.1,0-0.2,0-0.2-0.1c-0.1-0.1-0.1-0.1-0.1-0.2c0-0.1,0.1-0.2,0.2-0.3c0.1,0,0.2,0,0.4,0c0.2,0,0.6,0,1.3-0.1
		c0.3,0,0.7,0,1.2-0.1c0.2,0,0.3,0,0.4,0C98.6,15.2,98.7,15.1,98.7,15.1z"/>
</g>
</svg>
